# xmcd
#
# Track frame offsets: 
#        150
#        24080
#        49742
#        71800
#        113697
#        134127
#        159295
#        185359
#        201762
#        229015
#        254345
#        279320
#
# Disc length: 3789 seconds
#
# Revision: 3
# Processed by: cddbd v1.5.2PL0 Copyright (c) Steve Scherf et al.
# Submitted via: ExactAudioCopyFreeDBPlugin 1.0
#
DISCID=a20ecb0c
DTITLE=Mark May and The Agitators - Telephone Road  Houston, TX
DYEAR=1997
DGENRE=Blues
TTITLE0=Mercury Blues
TTITLE1=Don't Give Up
TTITLE2=Sweet Spot
TTITLE3=Lights Are On But Nobody's Home
TTITLE4=Joann
TTITLE5=Telephone Road
TTITLE6=Icehouse Special
TTITLE7=Back In The Joint
TTITLE8=Took Me By Surprise
TTITLE9=She's A Stranger
TTITLE10=I'll Be Around
TTITLE11=Helena Hangover
EXTD=
EXTT0=
EXTT1=
EXTT2=
EXTT3=
EXTT4=
EXTT5=
EXTT6=
EXTT7=
EXTT8=
EXTT9=
EXTT10=
EXTT11=
PLAYORDER=
